# Blender v2.76 (sub 0) OBJ File: ''
# www.blender.org
mtllib torch.mtl
o Cylinder01
v 0.067839 -0.000877 0.275472
v 0.054581 0.039928 0.275472
v 0.047463 0.034757 0.293295
v 0.059041 -0.000877 0.293295
v 0.019870 0.065147 0.275472
v 0.017151 0.056780 0.293295
v -0.023035 0.065147 0.275472
v -0.020316 0.056780 0.293295
v -0.057746 0.039928 0.275472
v -0.050628 0.034757 0.293295
v -0.071004 -0.000877 0.275472
v -0.062206 -0.000877 0.293295
v -0.057746 -0.041682 0.275472
v -0.050628 -0.036511 0.293295
v -0.023035 -0.066901 0.275472
v -0.020316 -0.058533 0.293295
v 0.019870 -0.066901 0.275472
v 0.017151 -0.058533 0.293295
v 0.054581 -0.041682 0.275472
v 0.047463 -0.036511 0.293295
v 0.024851 -0.082232 -0.245202
v -0.028016 -0.082232 -0.245202
v -0.070787 -0.051157 -0.245202
v 0.083959 -0.000877 -0.245202
v -0.087124 -0.000877 -0.245202
v -0.070787 0.049403 -0.245202
v -0.028016 0.080478 -0.245202
v 0.024851 0.080478 -0.245202
v 0.067622 0.049403 -0.245202
v 0.067622 -0.051157 -0.245202
v 0.067839 -0.000877 -0.151641
v 0.054581 0.039928 -0.151641
v 0.054581 -0.041682 -0.151641
v 0.019870 -0.066901 -0.151641
v -0.023035 -0.066901 -0.151641
v -0.057746 -0.041682 -0.151641
v -0.071004 -0.000877 -0.151641
v -0.057746 0.039928 -0.151641
v -0.023035 0.065147 -0.151641
v 0.019870 0.065147 -0.151641
v 0.093110 -0.000877 -0.180249
v 0.075026 0.054782 -0.180249
v 0.075026 -0.056536 -0.180249
v 0.027679 -0.090935 -0.180249
v -0.030844 -0.090935 -0.180249
v -0.078191 -0.056536 -0.180249
v -0.096275 -0.000877 -0.180249
v -0.078191 0.054782 -0.180249
v -0.030844 0.089181 -0.180249
v 0.027679 0.089182 -0.180249
v 0.093110 -0.000877 -0.248587
v 0.075026 0.054782 -0.248587
v 0.075026 -0.056536 -0.248587
v 0.027679 -0.090935 -0.248587
v -0.030844 -0.090935 -0.248587
v -0.078191 -0.056536 -0.248587
v -0.096275 -0.000877 -0.248587
v -0.078191 0.054782 -0.248587
v -0.030844 0.089181 -0.248587
v 0.027679 0.089182 -0.248587
v 0.088873 -0.000877 -0.248587
v 0.071598 0.052292 -0.248587
v 0.071598 -0.054046 -0.248587
v 0.026370 -0.086906 -0.248587
v -0.029535 -0.086906 -0.248587
v -0.074763 -0.054046 -0.248587
v -0.092039 -0.000877 -0.248587
v -0.074763 0.052292 -0.248587
v -0.029535 0.085152 -0.248587
v 0.026370 0.085152 -0.248587
vt 0.875556 0.331281
vt 0.806078 0.301253
vt 0.763138 0.222638
vt 0.987973 0.222637
vt 0.763137 0.125464
vt 0.806077 0.046848
vt 0.875555 0.016821
vt 0.945033 0.046848
vt 0.987973 0.125463
vt 0.945034 0.301252
vt 0.480438 0.578712
vt 0.431199 0.557431
vt 0.400767 0.501716
vt 0.560109 0.501715
vt 0.400767 0.432848
vt 0.431198 0.377134
vt 0.480437 0.355852
vt 0.529677 0.377133
vt 0.560109 0.432848
vt 0.529678 0.557431
vt 0.135502 0.959500
vt 0.183467 0.966209
vt 0.173631 1.000000
vt 0.131746 0.994141
vt 0.376879 0.962600
vt 0.436166 0.962600
vt 0.432409 0.997241
vt 0.380636 0.997241
vt 0.484130 0.969309
vt 0.474294 1.003100
vt 0.239969 0.966209
vt 0.287933 0.959500
vt 0.291690 0.994141
vt 0.249804 1.000000
vt 0.347220 0.959500
vt 0.343463 0.994141
vt 0.395184 0.966209
vt 0.385349 1.000000
vt 0.604818 0.034346
vt 0.556675 0.038172
vt 0.554096 0.003341
vt 0.596138 0.000000
vt 0.497448 0.034617
vt 0.502375 0.000237
vt 0.028251 0.966209
vt 0.076215 0.959500
vt 0.079972 0.994141
vt 0.038087 1.000000
vt 0.135502 0.182711
vt 0.183467 0.189420
vt 0.076215 0.182711
vt 0.449760 0.025039
vt 0.471123 0.810617
vt 0.423435 0.801039
vt 0.530350 0.814172
vt 0.578492 0.810346
vt 0.347220 0.182711
vt 0.395184 0.189420
vt 0.287933 0.182711
vt 0.239969 0.189420
vt 0.436166 0.185811
vt 0.484130 0.192520
vt 0.376879 0.185811
vt 0.146293 0.124286
vt 0.211718 0.133438
vt 0.065425 0.124286
vt 0.028251 0.189420
vt 0.000000 0.133438
vt 0.539150 0.873184
vt 0.458363 0.868335
vt 0.604818 0.867965
vt 0.358011 0.124286
vt 0.423435 0.133438
vt 0.277142 0.124286
vt 0.446957 0.127387
vt 0.512381 0.136538
vt 0.366088 0.127387
vt 0.146293 0.000000
vt 0.211718 0.009151
vt 0.065425 0.000000
vt 0.000000 0.009151
vt 0.534937 0.997344
vt 0.454151 0.992495
vt 0.600606 0.992125
vt 0.358011 0.000000
vt 0.423435 0.009151
vt 0.277142 0.000000
vt 0.446957 0.003100
vt 0.512381 0.012252
vt 0.366088 0.003100
vt 1.000000 0.120265
vt 1.000000 0.227835
vt 0.994432 0.225428
vt 0.994432 0.122671
vt 0.952467 0.314860
vt 0.949025 0.308560
vt 0.875556 0.348101
vt 0.875556 0.340314
vt 0.798645 0.314861
vt 0.802086 0.308561
vt 0.751111 0.227835
vt 0.756679 0.225429
vt 0.751111 0.120266
vt 0.756679 0.122673
vt 0.798644 0.033241
vt 0.802085 0.039540
vt 0.875555 0.000000
vt 0.875555 0.007787
vt 0.952466 0.033240
vt 0.949025 0.039540
vn -0.000000 0.000000 -1.000000
vn 0.000000 0.000000 1.000000
vn 0.896700 -0.000000 0.442600
vn 0.725400 0.527100 0.442600
vn 0.277100 0.852800 0.442600
vn -0.277100 0.852800 0.442600
vn -0.725400 0.527100 0.442600
vn -0.896700 -0.000000 0.442600
vn -0.725400 -0.527100 0.442600
vn -0.277100 -0.852800 0.442600
vn 0.277100 -0.852800 0.442600
vn 0.725400 -0.527100 0.442600
vn 0.809000 0.587800 0.000000
vn 1.000000 -0.000000 -0.000000
vn 0.809000 -0.587800 -0.000000
vn 0.309000 -0.951100 -0.000000
vn -0.309000 -0.951100 -0.000000
vn -0.809000 -0.587800 -0.000000
vn -1.000000 -0.000000 -0.000000
vn -0.809000 0.587800 0.000000
vn -0.309000 0.951100 0.000000
vn 0.309000 0.951100 0.000000
vn 0.606300 0.440500 0.662000
vn 0.749500 -0.000000 0.662000
vn 0.606300 -0.440500 0.662000
vn 0.231600 -0.712800 0.662000
vn -0.231600 -0.712800 0.662000
vn -0.606300 -0.440500 0.662000
vn -0.749500 -0.000000 0.662000
vn -0.606300 0.440500 0.662000
vn -0.231600 0.712800 0.662000
vn 0.231600 0.712800 0.662000
vn -0.241100 0.000000 -0.970500
vn -0.195100 -0.141700 -0.970500
vn -0.195100 0.141700 -0.970500
vn -0.074500 0.229300 -0.970500
vn 0.074500 0.229300 -0.970500
vn 0.195100 0.141700 -0.970500
vn 0.241100 0.000000 -0.970500
vn 0.195100 -0.141700 -0.970500
vn 0.074500 -0.229300 -0.970500
vn -0.074500 -0.229300 -0.970500
vn -0.567200 0.000000 -0.823600
vn -0.458900 -0.333400 -0.823600
vn -0.458900 0.333400 -0.823600
vn -0.175300 0.539400 -0.823600
vn 0.175300 0.539400 -0.823600
vn 0.458900 0.333400 -0.823600
vn 0.567200 0.000000 -0.823600
vn 0.458900 -0.333400 -0.823600
vn 0.175300 -0.539400 -0.823600
vn -0.175300 -0.539400 -0.823600
usemtl Material__38
s off
f 21/1/1 22/2/1 23/3/1 24/4/1
f 23/3/1 25/5/1 26/6/1 24/4/1
f 26/6/1 27/7/1 28/8/1 24/4/1
f 28/8/1 29/9/1 24/4/1
f 30/10/1 21/1/1 24/4/1
usemtl Material__37
f 3/11/2 6/12/2 8/13/2 20/14/2
f 8/13/2 10/15/2 12/16/2 20/14/2
f 12/16/2 14/17/2 16/18/2 20/14/2
f 16/18/2 18/19/2 20/14/2
f 4/20/2 3/11/2 20/14/2
s 1
f 1/21/3 2/22/4 3/23/4 4/24/3
f 2/25/4 5/26/5 6/27/5 3/28/4
f 5/26/5 7/29/6 8/30/6 6/27/5
f 7/31/6 9/32/7 10/33/7 8/34/6
f 9/32/7 11/35/8 12/36/8 10/33/7
f 11/35/8 13/37/9 14/38/9 12/36/8
f 13/39/9 15/40/10 16/41/10 14/42/9
f 15/40/10 17/43/11 18/44/11 16/41/10
f 17/45/11 19/46/12 20/47/12 18/48/11
f 19/46/12 1/21/3 4/24/3 20/47/12
f 2/22/13 1/21/14 31/49/14 32/50/13
f 1/21/14 19/46/15 33/51/15 31/49/14
f 19/52/15 17/43/16 34/53/16 33/54/15
f 17/43/16 15/40/17 35/55/17 34/53/16
f 15/40/17 13/39/18 36/56/18 35/55/17
f 13/37/18 11/35/19 37/57/19 36/58/18
f 11/35/19 9/32/20 38/59/20 37/57/19
f 9/32/20 7/31/21 39/60/21 38/59/20
f 7/29/21 5/26/22 40/61/22 39/62/21
f 5/26/22 2/25/13 32/63/13 40/61/22
f 32/50/23 31/49/24 41/64/24 42/65/23
f 31/49/24 33/51/25 43/66/25 41/64/24
f 33/51/25 34/67/26 44/68/26 43/66/25
f 34/53/26 35/55/27 45/69/27 44/70/26
f 35/55/27 36/56/28 46/71/28 45/69/27
f 36/58/28 37/57/29 47/72/29 46/73/28
f 37/57/29 38/59/30 48/74/30 47/72/29
f 38/59/30 39/60/31 49/65/31 48/74/30
f 39/62/31 40/61/32 50/75/32 49/76/31
f 40/61/32 32/63/23 42/77/23 50/75/32
f 42/65/13 41/64/14 51/78/14 52/79/13
f 41/64/14 43/66/15 53/80/15 51/78/14
f 43/66/15 44/68/16 54/81/16 53/80/15
f 44/70/16 45/69/17 55/82/17 54/83/16
f 45/69/17 46/71/18 56/84/18 55/82/17
f 46/73/18 47/72/19 57/85/19 56/86/18
f 47/72/19 48/74/20 58/87/20 57/85/19
f 48/74/20 49/65/21 59/79/21 58/87/20
f 49/76/21 50/75/22 60/88/22 59/89/21
f 50/75/22 42/77/13 52/90/13 60/88/22
f 52/91/1 51/92/1 61/93/33 62/94/34
f 51/92/1 53/95/1 63/96/35 61/93/33
f 53/95/1 54/97/1 64/98/36 63/96/35
f 54/97/1 55/99/1 65/100/37 64/98/36
f 55/99/1 56/101/1 66/102/38 65/100/37
f 56/101/1 57/103/1 67/104/39 66/102/38
f 57/103/1 58/105/1 68/106/40 67/104/39
f 58/105/1 59/107/1 69/108/41 68/106/40
f 59/107/1 60/109/1 70/110/42 69/108/41
f 60/109/1 52/91/1 62/94/34 70/110/42
f 62/94/34 61/93/33 24/4/43 29/9/44
f 61/93/33 63/96/35 30/10/45 24/4/43
f 63/96/35 64/98/36 21/1/46 30/10/45
f 64/98/36 65/100/37 22/2/47 21/1/46
f 65/100/37 66/102/38 23/3/48 22/2/47
f 66/102/38 67/104/39 25/5/49 23/3/48
f 67/104/39 68/106/40 26/6/50 25/5/49
f 68/106/40 69/108/41 27/7/51 26/6/50
f 69/108/41 70/110/42 28/8/52 27/7/51
f 70/110/42 62/94/34 29/9/44 28/8/52
